#!OML:ASF H:\Terrain\Patient Classification 1\Terrain2\Thursday\justin.ASF
:FULLY-SPECIFIED
:DEGREES
3982
root 19.0112 21.0789 -1.62042 1256.01 -182.928 -550.112
lowerback 13.5127 1.21746 11.6095
upperback 4.28156 3.35159 5.28538
thorax -2.66785 1.66525 -1.43971
lowerneck -10.68 -4.52482 -10.7153
upperneck 36.719 -6.019 6.04476
head 15.1374 -3.20288 3.50694
rclavicle -3.97569e-014 7.95139e-016
rhumerus -21.2836 -9.4734 -75.2847
rradius 36.612
rwrist -14.9968
rhand -22.7064 12.8934
rfingers 7.12502
rthumb 3.72665 -17.0538
lclavicle -3.97569e-014 7.95139e-016
lhumerus -36.5862 1.5624 87.4457
lradius 38.5105
lwrist 5.86544
lhand -19.1309 23.148
lfingers 7.12502
lthumb 7.17879 -306.994
rfemur 9.6463 -10.1997 34.166
rtibia 1.74931e-014
rfoot -4.66549 5.24047
rtoes 13.9512
lfemur -58.7285 6.60084 -10.0363
ltibia 85.6849
lfoot -12.6012 -17.9013
ltoes -10.1031
3983
root 19.0099 21.066 -1.52833 1255.74 -182.998 -549.961
lowerback 13.723 1.22447 11.4881
upperback 4.38512 3.36236 5.16666
thorax -2.67073 1.67399 -1.50628
lowerneck -10.6766 -4.52071 -10.6493
upperneck 36.7652 -6.02228 6.02701
head 15.1556 -3.1975 3.48885
rclavicle -4.19436e-014 -3.26007e-014
rhumerus -21.2181 -9.20147 -75.4672
rradius 37.0021
rwrist -15.2467
rhand -22.3862 12.8913
rfingers 7.12502
rthumb 4.03585 -17.0502
lclavicle -4.19436e-014 -3.26007e-014
lhumerus -36.7286 1.23965 87.4709
lradius 38.6645
lwrist 5.95299
lhand -19.5178 22.9099
lfingers 7.12502
lthumb 6.80535 -307.219
rfemur 10.2836 -10.224 33.9528
rtibia 9.54166e-015
rfoot -5.11905 5.17228
rtoes 11.924
lfemur -59.0455 6.17322 -10.1784
ltibia 84.3196
lfoot -11.8945 -17.8785
ltoes -10.7125
3984
root 19.0119 21.0593 -1.43474 1255.58 -183.178 -549.864
lowerback 13.6614 1.18317 11.3672
upperback 4.50839 3.26776 5.12224
thorax -2.52031 1.6387 -1.46874
lowerneck -10.5668 -4.51599 -10.6699
upperneck 36.6912 -5.99632 5.97359
head 15.0897 -3.19658 3.47269
rclavicle -4.37326e-015 -5.1684e-014
rhumerus -21.1301 -8.61294 -75.6482
rradius 37.3062
rwrist -15.4072
rhand -22.8273 13.0214
rfingers 7.12502
rthumb 3.6099 -16.9277
lclavicle -4.37326e-015 -5.1684e-014
lhumerus -36.7686 1.21617 87.5113
lradius 38.7699
lwrist 5.94236
lhand -19.5193 22.6022
lfingers 7.12502
lthumb 6.80388 -307.527
rfemur 10.7969 -10.3328 33.786
rtibia -1.59028e-014
rfoot -5.73479 4.91583
rtoes 10.2425
lfemur -59.437 5.70576 -10.3125
ltibia 82.9516
lfoot -11.4576 -17.5938
ltoes -12.3009
3985
root 19.0093 21.0565 -1.33966 1255.56 -183.31 -549.825
lowerback 13.5276 1.18425 11.1725
upperback 4.55077 3.21898 5.12425
thorax -2.42013 1.62042 -1.34806
lowerneck -10.4549 -4.49327 -10.7412
upperneck 36.6459 -5.99446 6.08796
head 15.0486 -3.19221 3.53487
rclavicle -3.10104e-014 8.74653e-015
rhumerus -20.9784 -8.12542 -75.8069
rradius 37.5283
rwrist -15.8508
rhand -23.045 13.1036
rfingers 7.12502
rthumb 3.39965 -16.849
lclavicle -3.10104e-014 8.74653e-015
lhumerus -36.7534 1.23885 87.5688
lradius 38.7142
lwrist 5.99612
lhand -19.5522 22.4611
lfingers 7.12502
lthumb 6.77211 -307.667
rfemur 11.1338 -10.3657 33.7508
rtibia 9.54166e-015
rfoot -6.14058 4.68878
rtoes 10.5135
lfemur -59.9173 5.31249 -10.3036
ltibia 81.5868
lfoot -10.6718 -17.3921
ltoes -12.2964
3986
root 19.0075 21.0481 -1.24092 1255.43 -183.394 -549.861
lowerback 13.5792 1.18257 11.1206
upperback 4.62306 3.21047 5.11763
thorax -2.37465 1.62047 -1.3258
lowerneck -10.3921 -4.47521 -10.9432
upperneck 36.5656 -6.01835 6.36689
head 15.0175 -3.19472 3.68497
rclavicle -1.45113e-014 -5.725e-014
rhumerus -20.8171 -8.0647 -75.9552
rradius 37.7302
rwrist -15.76
rhand -23.0554 12.8493
rfingers 7.12502
rthumb 3.38956 -17.1035
lclavicle -1.45113e-014 -5.725e-014
lhumerus -36.7431 1.26552 87.6297
lradius 38.6575
lwrist 5.81149
lhand -19.6918 22.7047
lfingers 7.12502
lthumb 6.63735 -307.419
rfemur 11.652 -10.3824 33.7359
rtibia -2.54444e-014
rfoot -6.35867 4.61413
rtoes 11.8087
lfemur -60.1693 4.95729 -10.189
ltibia 80.2477
lfoot -10.0162 -17.0527
ltoes -14.4291
3987
root 19.0078 21.0333 -1.14319 1255.22 -183.47 -550.087
lowerback 13.6808 1.15021 11.3356
upperback 4.72205 3.20259 5.1467
thorax -2.31235 1.62325 -1.412
lowerneck -10.4427 -4.49536 -10.9902
upperneck 36.5163 -6.0095 6.32267
head 15.0055 -3.20108 3.67332
rclavicle -3.97569e-015 1.59028e-015
rhumerus -20.6435 -8.10322 -76.0923
rradius 37.8491
rwrist -15.4538
rhand -22.935 12.4653
rfingers 7.12502
rthumb 3.50589 -17.4856
lclavicle -3.97569e-015 1.59028e-015
lhumerus -36.6666 1.3835 87.6278
lradius 38.5342
lwrist 5.37324
lhand -19.1529 22.6523
lfingers 7.12502
lthumb 7.15756 -307.489
rfemur 12.2415 -10.4205 33.9072
rtibia 2.22639e-014
rfoot -6.64225 4.55838
rtoes 12.0568
lfemur -60.3605 4.62649 -9.87526
ltibia 78.9392
lfoot -9.26657 -16.8949
ltoes -15.1969
3988
root 19.0104 21.0238 -1.04485 1255.05 -183.587 -550.174
lowerback 13.6644 1.11672 11.4185
upperback 4.82275 3.15596 5.13643
thorax -2.19432 1.60962 -1.45813
lowerneck -10.5157 -4.4872 -10.8413
upperneck 36.6363 -5.94047 6.07983
head 15.0568 -3.18182 3.5571
rclavicle -1.68967e-014 -1.82882e-014
rhumerus -20.5486 -7.8042 -76.2553
rradius 38.0144
rwrist -15.6199
rhand -22.9219 12.8459
rfingers 7.12502
rthumb 3.51856 -17.1048
lclavicle -1.68967e-014 -1.82882e-014
lhumerus -36.4836 1.41047 87.6249
lradius 38.1845
lwrist 5.19638
lhand -18.9803 22.0179
lfingers 7.12502
lthumb 7.32414 -308.129
rfemur 12.8021 -10.4821 33.9362
rtibia -1.27222e-014
rfoot -7.021 4.44119
rtoes 11.4976
lfemur -60.4935 4.19162 -9.64741
ltibia 77.6936
lfoot -8.31414 -17.0055
ltoes -12.4066
3989
root 19.0151 21.0132 -0.936802 1254.94 -183.724 -550.094
lowerback 13.4588 1.10188 11.338
upperback 4.9574 3.07738 5.07254
thorax -1.94821 1.58696 -1.4601
lowerneck -10.6397 -4.49729 -10.8153
upperneck 36.8612 -5.93044 6.01423
head 15.1918 -3.18314 3.5321
rclavicle -6.69904e-014 4.77083e-015
rhumerus -20.4716 -7.42403 -76.4553
rradius 38.228
rwrist -15.8359
rhand -22.9898 13.436
rfingers 7.12502
rthumb 3.45294 -16.5158
lclavicle -6.69904e-014 4.77083e-015
lhumerus -36.309 1.38829 87.623
lradius 37.9334
lwrist 5.20566
lhand -18.9925 22.2483
lfingers 7.12502
lthumb 7.31237 -307.898
rfemur 13.3359 -10.5339 33.764
rtibia 7.63333e-014
rfoot -7.41801 4.36285
rtoes 10.822
lfemur -60.5385 3.71686 -9.59362
ltibia 76.5303
lfoot -7.5888 -17.0821
ltoes -11.9206
3990
root 19.0174 20.9975 -0.830205 1254.82 -183.781 -550.165
lowerback 13.3961 1.11811 11.3976
upperback 5.02807 3.08707 5.01539
thorax -1.83024 1.60063 -1.54976
lowerneck -10.6422 -4.55625 -10.7751
upperneck 36.9768 -6.02271 5.99036
head 15.2581 -3.22103 3.50327
rclavicle 3.83654e-014 2.06736e-014
rhumerus -20.3759 -7.32473 -76.6739
rradius 38.3113
rwrist -15.9584
rhand -22.8753 13.2985
rfingers 7.12502
rthumb 3.56348 -16.6514
lclavicle 3.83654e-014 2.06736e-014
lhumerus -36.2889 1.32869 87.5496
lradius 37.8579
lwrist 4.98619
lhand -18.556 22.9529
lfingers 7.12502
lthumb 7.73372 -307.209
rfemur 13.8515 -10.5242 33.8003
rtibia -1.59028e-014
rfoot -7.82535 4.25683
rtoes 9.95549
lfemur -60.5705 3.41394 -9.37934
ltibia 75.4579
lfoot -6.92557 -17.248
ltoes -13.8843
